<?xml version="1.0" encoding="UTF-8"?>
<svg id="Layer_1" data-name="Layer 1" xmlns="http://www.w3.org/2000/svg" viewBox="0 0 1920 1080">
  <defs>
    <style>
      .cls-1 {
        fill: #3e00ff;
      }

      .cls-2 {
        fill: #fd105e;
      }

      .cls-3 {
        fill: #262626;
      }
    </style>
  </defs>
  <path class="cls-1" d="M14.23,215.14c-.14,16.67.47,33.36,1.8,49.96.13,1.63.32,3.38,1.3,4.58,1.24,1.52,3.31,1.64,5.14,1.66,35.9.29,71.81.57,107.71.86.66,0,1.38-.02,1.86-.52.52-.54.56-1.43.57-2.23.14-18.52-1.03-37.05-3.5-55.36-.1-.75-.23-1.56-.73-2.06-.53-.53-1.31-.56-2.02-.56-36.04,0-76.1,3.65-112.14,3.66"/>
  <path class="cls-3" d="M-36.95,238.53c-.08,13.45.15,26.91.71,40.35.29,6.9.53,13.84,1.13,20.73.53,6.08,2.68,11.81,9.19,13.5,5.88,1.53,12.9.55,18.94.61,6.73.07,13.46.13,20.19.2,13.72.13,27.44.27,41.16.4,6.73.07,13.46.13,20.19.2,5.82.06,15.18,2,18.78-4,2.95-4.92,1.55-12.95,1.47-18.46-.1-6.87-.33-13.74-.68-20.61-.33-6.6-.78-13.2-1.34-19.78-.26-3.03-.54-6.07-.85-9.1-.32-3.18-.29-6.78-1.51-9.77-2.77-6.79-10.44-5.73-16.45-5.64-6.39.1-12.77.32-19.16.6-28.26,1.23-56.47,3.72-84.77,3.77-9.02.01-9.04,14.04,0,14.02,18.86-.03,37.69-1.16,56.51-2.26,9.42-.55,18.83-1.1,28.26-1.51,9.14-.4,18.75-1.39,27.87-.56-1.18-.32-2.36-.64-3.54-.96l.94.58-2.52-2.52c.48.88.41,4.95.56,6.52.27,2.78.52,5.56.75,8.34.48,5.83.87,11.66,1.18,17.5.29,5.59.5,11.19.63,16.79.07,3.06.12,6.11.14,9.17.01,1.53.02,3.06.01,4.59,0,.74-.67,4.39.38,2.21.84-.84,1.68-1.68,2.52-2.52l-.86.54c1.18-.32,2.36-.64,3.54-.96-7.19.61-14.74-.05-21.96-.12-7.51-.07-15.01-.15-22.52-.22-14.5-.14-28.99-.28-43.49-.42-1.98-.02-21.06-.62-21.12-.22.26-1.84,1.94,3.63,1.53-.52-.15-1.54-.2-3.1-.29-4.64-.22-3.61-.41-7.22-.58-10.84-.71-14.99-1-29.99-.91-45,.05-9.03-13.97-9.04-14.02,0h0Z"/>
  <path class="cls-2" d="M188.81,509.5c-14.01,9.61-21.84,17.27-28.8,32.76-6.97,15.49-5.63,35.79,7.06,47.09,9.16,8.15,22.69,10.24,34.59,7.28,11.9-2.96,22.27-10.43,30.71-19.33,7.22-7.61,13.35-16.59,15.89-26.78,2.53-10.19,1.06-21.7-5.51-29.88-6.03-7.5-15.62-11.44-25.18-12.6-9.55-1.16-19.22.15-28.75,1.46"/>
  <path class="cls-3" d="M155.88,464.64c-18.32,12.63-36.59,28.74-42.29,51.16-5.32,20.92,1.87,45.69,22.77,54.94,23.18,10.25,47.84-.05,65.12-16.49,16.25-15.47,29.21-39.16,20.51-61.86-4.79-12.5-15.23-20.58-27.79-24.41-13.25-4.04-27.37-2.28-40.82-.43-3.75.51-6.88,3.29-6.69,7.32.16,3.52,3.55,7.21,7.32,6.69,16.42-2.25,39.99-5.88,51.55,9.63,11.66,15.63,1.9,35.91-9.43,48.47-12.38,13.73-30.46,25.11-49.57,19.93-16.25-4.4-22.77-21.3-20.11-36.81,3.54-20.65,20.82-35.15,37.15-46.42,7.41-5.11-.26-16.86-7.72-11.71h0Z"/>
  <path class="cls-2" d="M1207.21,807.88c-15.29,6.64-30.3,13.97-44.93,21.93-1.43.78-2.96,1.66-3.66,3.05-.89,1.76-.16,3.69.57,5.37,14.31,32.93,28.62,65.86,42.94,98.79.26.6.58,1.25,1.23,1.49.7.25,1.54-.07,2.27-.38,16.98-7.39,33.44-15.98,49.17-25.67.64-.4,1.33-.85,1.59-1.51.27-.7-.02-1.42-.31-2.07-14.63-32.94-34.23-68.06-48.86-101"/>
  <path class="cls-3" d="M1195.62,786.88c-12.33,5.39-24.53,11.06-36.59,17.02-6.19,3.07-12.44,6.1-18.48,9.45-5.34,2.95-9.71,7.25-8.61,13.88.99,5.99,4.73,12.02,7.13,17.56,2.67,6.18,5.34,12.36,8.02,18.53,5.45,12.59,10.89,25.19,16.34,37.78,2.67,6.18,5.34,12.36,8.02,18.53,2.31,5.35,4.33,14.69,11.27,15.54,5.69.7,12.47-3.84,17.47-6.15,6.24-2.88,12.43-5.88,18.56-8.98,5.9-2.98,11.74-6.07,17.53-9.26,2.67-1.47,5.32-2.96,7.97-4.47,2.78-1.59,6.08-3.02,8.32-5.34,5.08-5.29,1-11.87-1.52-17.32-2.69-5.8-5.48-11.55-8.32-17.27-12.6-25.32-26.32-50.1-37.85-75.95-3.68-8.24-16.5-2.56-12.82,5.69,7.68,17.22,16.36,33.98,25,50.73,4.32,8.38,8.65,16.77,12.85,25.21,4.07,8.19,8.88,16.57,11.83,25.24-.19-1.21-.37-2.42-.56-3.62l-.15,1.09,1.28-3.32c-.61.79-4.36,2.38-5.73,3.16-2.43,1.38-4.87,2.73-7.32,4.07-5.13,2.8-10.3,5.53-15.52,8.18-4.99,2.54-10.02,5-15.09,7.39-2.76,1.3-5.54,2.59-8.32,3.85-1.39.63-2.79,1.25-4.18,1.87-.68.3-4.29,1.17-1.87,1.25,1.11.43,2.21.85,3.32,1.28l-.85-.57c.77.95,1.54,1.9,2.31,2.85-3.48-6.33-5.94-13.49-8.8-20.12-2.98-6.89-5.96-13.78-8.94-20.67-5.76-13.31-11.51-26.61-17.27-39.92-.79-1.82-7.98-19.5-8.37-19.39,1.79-.51-2.53,3.25,1.09,1.19,1.35-.76,2.75-1.44,4.12-2.15,3.21-1.67,6.44-3.31,9.67-4.93,13.41-6.73,27.01-13.09,40.75-19.1,8.27-3.62,2.59-16.44-5.69-12.82h0Z"/>
  <path class="cls-1" d="M1724.41,865.41c-14.01,9.61-21.84,17.27-28.8,32.76-6.97,15.49-5.63,35.79,7.06,47.09,9.16,8.15,22.69,10.24,34.59,7.28,11.9-2.96,22.27-10.43,30.71-19.33,7.22-7.61,13.35-16.59,15.89-26.78,2.53-10.19,1.06-21.7-5.51-29.88-6.03-7.5-15.62-11.44-25.18-12.6-9.55-1.16-19.22.15-28.75,1.46"/>
  <path class="cls-3" d="M1758.01,795.78c-18.32,12.63-36.59,28.74-42.29,51.16-5.32,20.92,1.87,45.69,22.77,54.94,23.18,10.25,47.84-.05,65.12-16.49,16.25-15.47,29.21-39.16,20.51-61.86-4.79-12.5-15.23-20.58-27.79-24.41-13.25-4.04-27.37-2.28-40.82-.43-3.75.51-6.88,3.29-6.69,7.32.16,3.52,3.55,7.21,7.32,6.69,16.42-2.25,39.99-5.88,51.55,9.63,11.66,15.63,1.9,35.91-9.43,48.47-12.38,13.73-30.46,25.11-49.57,19.93-16.25-4.4-22.77-21.3-20.11-36.81,3.54-20.65,20.82-35.15,37.15-46.42,7.41-5.11-.26-16.86-7.72-11.71h0Z"/>
  <path class="cls-2" d="M-8.17,856.37c-5.94,15.58-11.19,31.43-15.72,47.46-.44,1.57-.88,3.28-.38,4.75.63,1.86,2.53,2.69,4.24,3.35,33.55,12.78,67.11,25.56,100.66,38.34.61.23,1.3.46,1.93.16.67-.33,1.03-1.15,1.31-1.89,6.58-17.31,11.94-35.09,16.01-53.11.17-.74.32-1.54.03-2.19-.31-.68-1.03-.98-1.7-1.23-33.78-12.56-72.6-23.09-106.38-35.65"/>
  <path class="cls-3" d="M-31.29,849.98c-4.76,12.58-9.24,25.27-13.4,38.07-2.13,6.57-4.33,13.16-6.16,19.82-1.62,5.88-1.6,12.01,3.91,15.86,4.98,3.48,11.9,5.02,17.54,7.17,6.29,2.41,12.57,4.81,18.86,7.22,12.81,4.91,25.63,9.81,38.44,14.72,6.29,2.41,12.57,4.81,18.86,7.22,5.44,2.08,13.53,7.17,18.99,2.8,4.48-3.58,5.97-11.6,7.81-16.79,2.3-6.48,4.48-13,6.55-19.55,1.99-6.3,3.87-12.64,5.63-19.01.82-2.93,1.61-5.87,2.38-8.82.81-3.1,2.09-6.46,1.99-9.69-.23-7.33-7.79-9.01-13.45-11.02-6.02-2.13-12.08-4.15-18.16-6.12-26.92-8.69-54.23-16.19-80.77-26.01-8.46-3.13-13.36,10.01-4.89,13.14,17.69,6.54,35.73,12.05,53.76,17.58,9.02,2.77,18.04,5.53,27.01,8.43,8.7,2.81,18.06,5.23,26.32,9.18-.99-.71-1.99-1.42-2.98-2.13l.68.87-1.48-3.23c.14.99-1.34,4.78-1.75,6.31-.71,2.7-1.45,5.39-2.21,8.08-1.58,5.63-3.25,11.23-5,16.81-1.68,5.34-3.43,10.66-5.26,15.96-1,2.89-2.02,5.77-3.07,8.64-.52,1.44-1.05,2.87-1.58,4.3-.26.69-2.16,3.88-.41,2.21l3.23-1.48-1,.21c1.22.11,2.43.22,3.65.34-6.96-1.93-13.8-5.18-20.54-7.76-7.01-2.68-14.02-5.37-21.03-8.05-13.54-5.18-27.08-10.37-40.62-15.55-1.85-.71-19.53-7.92-19.72-7.57.89-1.64.55,4.08,1.61.05.39-1.5.89-2.97,1.34-4.45,1.05-3.46,2.13-6.92,3.23-10.36,4.56-14.3,9.51-28.46,14.82-42.5,3.19-8.44-9.95-13.34-13.14-4.89h0Z"/>
  <path class="cls-1" d="M423.59,843.75c7.57-15.21,10.68-25.71,9.23-42.64-1.45-16.93-12.49-34.01-29.07-37.71-11.97-2.67-24.81,2.09-33.76,10.47-8.95,8.38-14.38,19.95-17.43,31.83-2.61,10.17-3.59,20.99-.85,31.12,2.74,10.13,9.62,19.48,19.35,23.42,8.92,3.62,19.22,2.4,28.13-1.24,8.91-3.63,16.72-9.48,24.41-15.26"/>
  <path class="cls-3" d="M451.36,828.94c9.86-19.95,17.99-42.9,12.06-65.27-5.53-20.87-23.86-39.01-46.62-36.92-25.24,2.32-41.78,23.31-48.87,46.09-6.67,21.42-6.47,48.43,12.17,64.02,10.27,8.59,23.32,10.57,36.16,7.81,13.54-2.91,25.02-11.32,35.88-19.48,3.02-2.27,4.41-6.22,2.29-9.65-1.85-2.99-6.61-4.57-9.65-2.29-13.26,9.96-32.08,24.59-49.73,16.66-17.79-7.99-19.12-30.45-15.34-46.94,4.14-18.02,14.4-36.75,33.62-41.53,16.34-4.06,30.25,7.54,35.47,22.39,6.95,19.77-1.09,40.84-9.88,58.63-3.99,8.07,8.43,14.6,12.44,6.48h0Z"/>
  <path class="cls-1" d="M1122.44,143.71c-4.39,16.09-8.07,32.37-11.02,48.77-.29,1.61-.56,3.35.08,4.76.81,1.79,2.78,2.43,4.55,2.92,34.64,9.45,69.28,18.9,103.92,28.35.63.17,1.34.34,1.93-.03.64-.39.91-1.24,1.12-2.01,4.86-17.87,8.47-36.08,10.76-54.42.09-.75.17-1.57-.18-2.18-.38-.65-1.12-.87-1.81-1.06-34.84-9.2-74.51-15.91-109.35-25.11"/>
  <path class="cls-3" d="M1098.81,139.61c-3.51,12.99-6.73,26.05-9.62,39.19-1.48,6.75-3.02,13.52-4.2,20.33-1.04,6.01-.42,12.11,5.44,15.4,5.3,2.98,12.33,3.83,18.16,5.43,6.49,1.78,12.98,3.57,19.47,5.35,13.23,3.63,26.46,7.27,39.69,10.9,6.49,1.78,12.98,3.57,19.47,5.35,5.62,1.54,14.16,5.82,19.18.93,4.11-4,4.81-12.13,6.14-17.47,1.66-6.67,3.19-13.37,4.61-20.1,1.36-6.47,2.62-12.96,3.76-19.47.53-3,1.03-6,1.5-9.01.5-3.16,1.46-6.63,1.04-9.84-.94-7.28-8.63-8.21-14.46-9.65-6.2-1.53-12.43-2.96-18.67-4.32-27.63-6.03-55.55-10.83-82.92-18.01-8.73-2.29-12.32,11.26-3.58,13.56,18.24,4.79,36.74,8.51,55.22,12.26,9.24,1.87,18.49,3.75,27.71,5.76,8.93,1.95,18.48,3.44,27.09,6.57-1.06-.61-2.12-1.22-3.18-1.83l.76.8-1.79-3.07c.24.97-.87,4.89-1.12,6.45-.45,2.76-.92,5.51-1.41,8.26-1.02,5.76-2.14,11.5-3.33,17.22s-2.37,10.95-3.68,16.39c-.71,2.97-1.45,5.94-2.21,8.9-.38,1.48-.77,2.96-1.16,4.44-.19.72-1.77,4.07-.2,2.24l3.07-1.79-.97.31c1.22,0,2.44-.01,3.67-.02-7.11-1.25-14.23-3.81-21.2-5.73-7.24-1.99-14.48-3.98-21.72-5.96-13.98-3.84-27.96-7.68-41.94-11.52-1.91-.52-20.21-5.98-20.36-5.61.72-1.72.95,4.01,1.61-.11.25-1.53.6-3.05.9-4.56.71-3.55,1.45-7.09,2.2-10.63,3.14-14.67,6.69-29.25,10.61-43.74,2.36-8.71-11.2-12.3-13.56-3.58h0Z"/>
  <path class="cls-1" d="M752.95,860.41c3.94,16.2,8.59,32.24,13.93,48.02.52,1.55,1.13,3.2,2.38,4.13,1.58,1.17,3.61.79,5.39.35,34.89-8.48,69.78-16.96,104.67-25.44.64-.15,1.33-.35,1.68-.96.37-.65.2-1.52,0-2.3-4.38-17.99-10.04-35.68-16.9-52.83-.28-.7-.61-1.46-1.22-1.82-.64-.39-1.4-.22-2.09-.05-34.95,8.79-72.91,22.11-107.86,30.9"/>
  <path class="cls-3" d="M730.28,868.24c3.21,13.07,6.7,26.06,10.53,38.96,1.96,6.62,3.89,13.29,6.15,19.82,2,5.76,5.48,10.8,12.21,10.85,6.08.05,12.65-2.61,18.52-4.03,6.54-1.58,13.09-3.16,19.63-4.73,13.34-3.22,26.68-6.43,40.01-9.65,6.54-1.58,13.09-3.16,19.63-4.73,5.66-1.37,15.21-1.76,17.24-8.45,1.66-5.49-1.65-12.94-3.08-18.26-1.78-6.64-3.67-13.25-5.68-19.82-1.93-6.32-3.98-12.61-6.13-18.86-.99-2.88-2-5.75-3.04-8.61-1.09-3.01-1.93-6.51-3.84-9.11-4.34-5.91-11.52-3.02-17.32-1.46-6.17,1.66-12.31,3.42-18.43,5.25-27.1,8.09-53.86,17.38-81.29,24.33-8.75,2.22-5.34,15.82,3.42,13.6,18.28-4.63,36.27-10.32,54.26-15.97,9-2.83,18-5.66,27.04-8.36,8.76-2.62,17.84-5.92,26.89-7.34-1.22-.02-2.44-.04-3.67-.07l1.05.33-3.05-1.83c.68.73,1.6,4.7,2.13,6.19.94,2.63,1.86,5.27,2.76,7.91,1.89,5.53,3.69,11.1,5.41,16.69,1.65,5.35,3.21,10.73,4.7,16.13.81,2.95,1.6,5.9,2.37,8.86.38,1.48.76,2.96,1.13,4.44.18.72.42,4.42.91,2.05l1.83-3.05-.7.74c1.07-.6,2.13-1.19,3.2-1.79-6.83,2.35-14.3,3.55-21.32,5.24-7.3,1.76-14.6,3.52-21.89,5.28-14.09,3.4-28.19,6.8-42.28,10.2-1.92.46-20.58,4.53-20.54,4.93-.2-1.85,2.77,3.05,1.36-.87-.52-1.46-.95-2.95-1.42-4.43-1.09-3.45-2.16-6.91-3.21-10.37-4.35-14.36-8.29-28.84-11.86-43.42-2.15-8.77-15.75-5.36-13.6,3.42h0Z"/>
  <path class="cls-1" d="M1861.69,355.59c1.91,16.57,4.55,33.05,7.91,49.37.33,1.6.73,3.32,1.85,4.39,1.42,1.36,3.48,1.23,5.31,1.02,35.67-4.11,71.34-8.23,107.01-12.34.65-.08,1.37-.19,1.78-.74.45-.6.38-1.49.29-2.28-2.13-18.4-5.56-36.64-10.25-54.51-.19-.73-.42-1.52-.98-1.96-.59-.46-1.37-.39-2.07-.31-35.77,4.42-75.08,12.95-110.85,17.36"/>
  <path class="cls-3" d="M1797.5,393.38c1.57,13.36,3.44,26.69,5.64,39.96,1.13,6.82,2.22,13.67,3.66,20.43,1.27,5.96,4.11,11.39,10.77,12.27,6.02.8,12.88-1.03,18.87-1.71,6.69-.76,13.38-1.52,20.06-2.28,13.63-1.55,27.27-3.1,40.9-4.64,6.69-.76,13.38-1.52,20.06-2.28,5.79-.66,15.31.13,18.15-6.27,2.33-5.24-.05-13.04-.8-18.5-.94-6.81-2.01-13.6-3.2-20.37-1.14-6.51-2.39-13-3.76-19.47-.63-2.98-1.28-5.95-1.96-8.92-.71-3.12-1.12-6.7-2.69-9.52-3.58-6.4-11.06-4.41-17.01-3.58-6.33.88-12.64,1.88-18.94,2.94-27.89,4.69-55.59,10.61-83.67,14.12-8.95,1.12-7.25,15.04,1.72,13.92,18.71-2.34,37.27-5.76,55.81-9.16,9.28-1.7,18.56-3.4,27.86-4.96,9.02-1.52,18.44-3.68,27.59-3.97-1.21-.17-2.42-.34-3.63-.52l1,.46-2.8-2.19c.58.81,1.01,4.86,1.35,6.4.61,2.73,1.2,5.45,1.77,8.19,1.19,5.72,2.29,11.47,3.31,17.23.97,5.52,1.87,11.04,2.68,16.59.44,3.02.86,6.05,1.26,9.08.2,1.52.39,3.03.58,4.55.09.73-.13,4.44.65,2.15l2.19-2.8-.79.65c1.13-.46,2.26-.92,3.39-1.38-7.07,1.49-14.63,1.76-21.81,2.57-7.46.85-14.92,1.69-22.38,2.54-14.4,1.64-28.81,3.27-43.21,4.91-1.97.22-20.98,1.96-20.99,2.37.03-1.86,2.37,3.37,1.45-.7-.34-1.51-.58-3.05-.86-4.57-.66-3.56-1.29-7.12-1.91-10.69-2.54-14.79-4.67-29.65-6.42-44.55-1.05-8.96-14.97-7.26-13.92,1.72h0Z"/>
  <path class="cls-2" d="M1442.15,414.19c-15.85-6.13-26.59-8.26-43.31-5.25-16.72,3.01-32.71,15.58-34.86,32.43-1.55,12.16,4.37,24.51,13.54,32.65,9.17,8.14,21.19,12.48,33.3,14.42,10.36,1.66,21.23,1.64,31.07-2.03,9.83-3.67,18.5-11.38,21.54-21.43,2.78-9.21.61-19.36-3.83-27.9s-10.98-15.77-17.45-22.9"/>
  <path class="cls-3" d="M1414.34,384.07c-20.77-7.98-44.38-13.95-66.11-5.98-20.27,7.43-36.64,27.36-32.46,49.83,4.64,24.92,27.07,39.44,50.4,44.41,21.94,4.67,48.82,1.97,62.63-18.03,7.6-11.02,8.37-24.19,4.44-36.73-4.15-13.21-13.58-23.87-22.71-33.92-2.54-2.8-6.6-3.81-9.82-1.39-2.81,2.12-3.95,7-1.39,9.82,11.14,12.28,27.45,29.67,21.18,47.98-6.31,18.45-28.55,21.85-45.32,19.61-18.33-2.45-37.92-10.94-44.45-29.64-5.55-15.9,4.71-30.82,19.01-37.39,19.04-8.75,40.77-2.69,59.29,4.43,8.4,3.23,13.76-9.74,5.3-12.99h0Z"/>
  <path class="cls-2" d="M1681.98,619.6c-12.73,11.25-19.56,19.81-24.57,36.04-5.02,16.23-1.2,36.21,12.77,45.87,10.09,6.97,23.78,7.38,35.22,2.99,11.44-4.4,20.83-13.08,28.11-22.94,6.24-8.44,11.22-18.1,12.49-28.52,1.27-10.42-1.6-21.67-9.13-28.98-6.9-6.71-16.91-9.44-26.53-9.42-9.63.02-19.06,2.5-28.36,4.97"/>
  <path class="cls-3" d="M1664.95,612.54c-16.63,14.78-32.79,33-35.71,55.95-2.72,21.42,7.45,45.12,29.33,51.73,24.27,7.34,47.47-5.91,62.61-24.34,14.23-17.34,24.2-42.44,12.78-63.9-6.29-11.82-17.64-18.56-30.57-20.83-13.64-2.39-27.44,1.09-40.56,4.57-3.66.97-6.42,4.11-5.75,8.08.59,3.47,4.4,6.72,8.08,5.75,16.03-4.25,38.97-10.73,52.35,3.24,13.48,14.09,6.28,35.4-3.43,49.26-10.61,15.15-27.15,28.65-46.76,25.85-16.67-2.38-25.2-18.35-24.46-34.07.99-20.93,16.36-37.44,31.19-50.62,6.73-5.98-2.32-16.7-9.09-10.68h0Z"/>
  <path class="cls-2" d="M1630.8,152.95c-12.73,11.25-19.56,19.81-24.57,36.04-5.02,16.23-1.2,36.21,12.77,45.87,10.09,6.97,23.78,7.38,35.22,2.99,11.44-4.4,20.83-13.08,28.11-22.94,6.24-8.44,11.22-18.1,12.49-28.52,1.27-10.42-1.6-21.67-9.13-28.98-6.9-6.71-16.91-9.44-26.53-9.42-9.63.02-19.06,2.5-28.36,4.97"/>
  <path class="cls-3" d="M1613.76,145.89c-16.63,14.78-32.79,33-35.71,55.95-2.72,21.42,7.45,45.12,29.33,51.73,24.27,7.34,47.47-5.91,62.61-24.34,14.23-17.34,24.2-42.44,12.78-63.9-6.29-11.82-17.64-18.56-30.57-20.83-13.64-2.39-27.44,1.09-40.56,4.57-3.66.97-6.42,4.11-5.75,8.08.59,3.47,4.4,6.72,8.08,5.75,16.03-4.25,38.97-10.73,52.35,3.24,13.48,14.09,6.28,35.4-3.43,49.26-10.61,15.15-27.15,28.65-46.76,25.85-16.67-2.38-25.2-18.35-24.46-34.07.99-20.93,16.36-37.44,31.19-50.62,6.73-5.98-2.32-16.7-9.09-10.68h0Z"/>
  <path class="cls-2" d="M675.63,180.28c-12.73,11.25-19.56,19.81-24.57,36.04-5.02,16.23-1.2,36.21,12.77,45.87,10.09,6.97,23.78,7.38,35.22,2.99,11.44-4.4,20.83-13.08,28.11-22.94,6.24-8.44,11.22-18.1,12.49-28.52,1.27-10.42-1.6-21.67-9.13-28.98-6.9-6.71-16.91-9.44-26.53-9.42-9.63.02-19.06,2.5-28.36,4.97"/>
  <path class="cls-3" d="M658.6,173.21c-16.63,14.78-32.79,33-35.71,55.95-2.72,21.42,7.45,45.12,29.33,51.73,24.27,7.34,47.47-5.91,62.61-24.34,14.23-17.34,24.2-42.44,12.78-63.9-6.29-11.82-17.64-18.56-30.57-20.83-13.64-2.39-27.44,1.09-40.56,4.57-3.66.97-6.42,4.11-5.75,8.08.59,3.47,4.4,6.72,8.08,5.75,16.03-4.25,38.97-10.73,52.35,3.24,13.48,14.09,6.28,35.4-3.43,49.26-10.61,15.15-27.15,28.65-46.76,25.85-16.67-2.38-25.2-18.35-24.46-34.07.99-20.93,16.36-37.44,31.19-50.62,6.73-5.98-2.32-16.7-9.09-10.68h0Z"/>
</svg>